<?xml version="1.0" encoding="UTF-8" standalone="no"?>
<!-- Created with Inkscape (http://www.inkscape.org/) -->

<svg
   xmlns:dc="http://purl.org/dc/elements/1.1/"
   xmlns:cc="http://creativecommons.org/ns#"
   xmlns:rdf="http://www.w3.org/1999/02/22-rdf-syntax-ns#"
   xmlns:svg="http://www.w3.org/2000/svg"
   xmlns="http://www.w3.org/2000/svg"
   xmlns:sodipodi="http://sodipodi.sourceforge.net/DTD/sodipodi-0.dtd"
   xmlns:inkscape="http://www.inkscape.org/namespaces/inkscape"
   width="90mm"
   height="20mm"
   viewBox="0 0 90 20"
   id="svg3632"
   version="1.1"
   inkscape:version="0.91 r13725"
   sodipodi:docname="header.svg">
  <defs
     id="defs3">
    <clipPath
       clipPathUnits="userSpaceOnUse"
       id="clipPath3683">
      <rect
         id="rect3685"
         width="310.83234"
         height="66.880508"
         x="33.882202"
         y="43.404324"
         style="fill:none" />
    </clipPath>
  </defs>
  <sodipodi:namedview
     id="base"
     pagecolor="#ffffff"
     bordercolor="#666666"
     borderopacity="1.0"
     inkscape:pageopacity="0.0"
     inkscape:pageshadow="2"
     inkscape:zoom="3.3941125"
     inkscape:cx="121.32382"
     inkscape:cy="69.163691"
     inkscape:document-units="mm"
     inkscape:current-layer="layer1"
     showgrid="true"
     inkscape:snap-text-baseline="true"
     inkscape:snap-page="false"
     inkscape:snap-to-guides="true"
     inkscape:snap-grids="true"
     inkscape:snap-bbox="true"
     inkscape:window-width="1869"
     inkscape:window-height="1176"
     inkscape:window-x="51"
     inkscape:window-y="24"
     inkscape:window-maximized="1">
    <inkscape:grid
       type="xygrid"
       id="grid3733" />
  </sodipodi:namedview>
  <metadata
     id="metadata3636">
    <rdf:RDF>
      <cc:Work
         rdf:about="">
        <dc:format>image/svg+xml</dc:format>
        <dc:type
           rdf:resource="http://purl.org/dc/dcmitype/StillImage" />
        <dc:title></dc:title>
      </cc:Work>
    </rdf:RDF>
  </metadata>
  <g
     inkscape:label="Layer 1"
     inkscape:groupmode="layer"
     id="layer1"
     transform="translate(0,-30)">
    <g
       transform="matrix(0.28222222,0,0,0.28681117,-7.816149,17.845158)"
       style="font-style:normal;font-variant:normal;font-weight:normal;font-stretch:normal;font-size:40px;line-height:135.00000238%;font-family:streatwear;-inkscape-font-specification:streatwear;text-align:center;letter-spacing:0px;word-spacing:0px;text-anchor:middle;fill:#000000;fill-opacity:1;stroke:none;stroke-width:1px;stroke-linecap:butt;stroke-linejoin:miter;stroke-opacity:1"
       id="flowRoot3639"
       clip-path="url(#clipPath3683)">
      <path
         d="m 115.24785,52.753909 c -0.25,-0.4 -0.65,-0.65 -1.1,-0.65 l -15.349998,0 -7.9,0 -13.55,0 c -0.8,0 -1.55,0.45 -1.9,1.2 l -1.9,3.8 c -0.2,0.35 -0.15,0.75 0.05,1.1 0.2,0.35 0.55,0.55 0.95,0.55 l 12.85,0 c -3.25,6.15 -7.95,15 -10.6,19.8 -24.3,2.9 -29.75,22.850001 -18,22.850001 7.4,0 15.35,-2.850001 23.85,-17.900001 0.15,-0.2 0.3,-0.5 0.5,-0.85 l 9.1,0 c 1.05,0 1.95,-0.5 2.5,-1.35 l 2.15,-4.2 c 0.25,-0.4 0.25,-0.9 0.05,-1.35 -0.25,-0.4 -0.7,-0.65 -1.15,-0.65 l -8.85,0 c 2.9,-5.4 6.1,-11.1 8.9,-16.35 l 15.299998,0 c 1.1,0 2.1,-0.6 2.55,-1.6 l 1.6,-3.15 c 0.2,-0.4 0.2,-0.85 -0.05,-1.25 z m -55.549998,43.1 c -4.5,0 1.8,-10.6 14.7,-13 -6.1,10 -11.6,13 -14.7,13 z"
         style="font-style:normal;font-variant:normal;font-weight:normal;font-stretch:normal;font-size:50px;line-height:135.00000238%;font-family:streetwear;-inkscape-font-specification:streetwear;text-align:center;text-anchor:middle"
         id="path3658"
         inkscape:connector-curvature="0" />
      <path
         d="m 128.47754,70.353909 c -1.85,1.95 -17,16.35 -18.9,17.95 -1.3,1.1 -2.5,2.2 -2.9,1.75 -0.4,-0.4 0.95,-3.15 1.7,-4.5 2.15,-4.05 17.85,-33.45 17.85,-33.45 l -7.95,0 c 0,0 -20.200001,37.95 -22.250001,41.7 -2.85,5.2 -1.35,7.600001 1.95,7.600001 2.100001,0 4.800001,-1.2 9.150001,-5.300001 4,-3.8 20.5,-20.4 21.9,-21.85 0.5,-0.55 0.4,-4.9 -0.55,-3.9 z"
         style="font-style:normal;font-variant:normal;font-weight:normal;font-stretch:normal;font-size:50px;line-height:135.00000238%;font-family:streetwear;-inkscape-font-specification:streetwear;text-align:center;text-anchor:middle"
         id="path3660"
         inkscape:connector-curvature="0" />
      <path
         d="m 162.39863,70.353909 c -1.85,1.95 -17,16.35 -18.9,17.95 -1.3,1.1 -2.5,2.2 -2.9,1.75 -0.4,-0.4 0.95,-3.15 1.7,-4.5 2.15,-4.05 9.3,-17.35 9.3,-17.35 l -7.95,0.05 c 0,0 -1.8,3.35 -4.1,7.7 -3,5.2 -11.45,14.1 -14.25,14.1 -2.9,0 -1.4,-3.15 -0.65,-4.5 2.15,-4.05 9.3,-17.35 9.3,-17.35 l -7.95,0.05 c 0,0 -10.05,18.8 -12.1,22.55 -2.85,5.25 -1.8,10.600001 3.2,10.600001 3.25,0 9.45,-5.300001 14.8,-11.200001 -0.9,1.65 -1.6,2.9 -1.95,3.6 -2.85,5.2 -1.35,7.600001 1.95,7.600001 2.1,0 4.8,-1.2 9.15,-5.300001 4,-3.8 20.5,-20.4 21.9,-21.85 0.5,-0.55 0.4,-4.9 -0.55,-3.9 z"
         style="font-style:normal;font-variant:normal;font-weight:normal;font-stretch:normal;font-size:50px;line-height:135.00000238%;font-family:streetwear;-inkscape-font-specification:streetwear;text-align:center;text-anchor:middle"
         id="path3662"
         inkscape:connector-curvature="0" />
      <path
         d="m 190.09473,70.353909 c -9.6,13.45 -20.35,25.1 -28.95,25.1 -4.3,0 -6.05,-2.55 -5.2,-6.55 0.7,0.65 1.55,1.2 2.65,1.5 4.35,1.35 9.3,-1 13.6,-6.35 7.15,-8.95 2.65,-15.85 -4.6,-15.85 -4.4,0 -11.25,3.9 -16.85,12.8 -6.85,10.95 -4.35,20.400001 7.9,20.400001 12.35,0 24.95,-15.400001 32.3,-27.350001 0.4,-0.65 -0.05,-4.8 -0.85,-3.7 z m -21.4,3.55 c 2.55,0 -0.15,5.85 -3.35,8.55 -2.35,1.95 -5.15,3.85 -7.6,1.95 0.15,-0.25 0.3,-0.45 0.4,-0.7 3.25,-5.45 7.95,-9.8 10.55,-9.8 z"
         style="font-style:normal;font-variant:normal;font-weight:normal;font-stretch:normal;font-size:50px;line-height:135.00000238%;font-family:streetwear;-inkscape-font-specification:streetwear;text-align:center;text-anchor:middle"
         id="path3664"
         inkscape:connector-curvature="0" />
      <path
         d="m 225.83145,70.353909 c -1.85,1.95 -17,16.35 -18.95,17.95 -1.25,1.1 -2.45,2.2 -2.85,1.75 -0.4,-0.4 0.95,-3.15 1.65,-4.5 2.2,-4.05 3,-5.55 4.2,-7.9 3.8,-7.25 0.75,-9.45 -3.15,-9.45 -2.35,0 -9.6,2.15 -19.65,15.25 l 8.15,-15.2 -7.9,0 -17.8,33.150001 7.9,0 0.1,-0.15 -0.1,0.15 c 6.5,-12.000001 19.85,-24.500001 22.75,-24.500001 1.7,0 1.05,2.2 -1,6.05 -2.3,4.2 -3.75,7.1 -5.8,10.85 -2.85,5.2 -1.35,7.600001 1.95,7.600001 2.05,0 4.8,-1.2 9.15,-5.300001 4,-3.8 20.45,-20.4 21.85,-21.85 0.55,-0.55 0.45,-4.9 -0.5,-3.9 z"
         style="font-style:normal;font-variant:normal;font-weight:normal;font-stretch:normal;font-size:50px;line-height:135.00000238%;font-family:streetwear;-inkscape-font-specification:streetwear;text-align:center;text-anchor:middle"
         id="path3666"
         inkscape:connector-curvature="0" />
      <path
         d="m 245.77129,70.353909 c -1.85,1.95 -19.45,16.35 -21.35,17.95 -1.3,1.1 -2.5,2.2 -2.9,1.75 -0.4,-0.4 0.95,-3.15 1.7,-4.5 0.85,-1.6 3.85,-7.2 7.15,-13.4 l 5.95,0 c 0.85,-1.6 1.35,-2.55 1.35,-2.55 l -5.95,0.05 c 4.6,-8.7 6.5,-11.95 6.5,-11.95 l -7.95,0 c 0,0 -1.55,2.7 -6.5,11.95 l -5.75,0 c 0,0 -0.5,0.9 -1.35,2.5 l 5.8,0 c -5.25,9.75 -10.6,19.8 -11.6,21.65 -2.85,5.2 -1.35,7.600001 1.95,7.600001 2.1,0 4.8,-1.2 9.15,-5.300001 4,-3.8 22.95,-20.4 24.35,-21.85 0.5,-0.55 0.4,-4.9 -0.55,-3.9 z"
         style="font-style:normal;font-variant:normal;font-weight:normal;font-stretch:normal;font-size:50px;line-height:135.00000238%;font-family:streetwear;-inkscape-font-specification:streetwear;text-align:center;text-anchor:middle"
         id="path3668"
         inkscape:connector-curvature="0" />
      <path
         d="m 279.03848,70.353909 c -1.85,1.95 -16.95,16.35 -18.9,17.95 -1.3,1.1 -2.45,2.2 -2.9,1.75 -0.4,-0.4 0.95,-3.15 1.7,-4.5 2.15,-4.05 9.3,-17.35 9.3,-17.35 l -7.95,0.05 c 0,0 -1.2,2.3 -2.95,5.55 -0.6,-2.95 -2.7,-5.6 -5.55,-5.6 -4.4,0 -10.8,3.6 -17.9,14.4 -7.1,10.8 -5.05,18.800001 1.75,18.800001 3.45,0 7,-2.450001 9.95,-5.400001 -1.35,3.7 0.15,5.400001 2.95,5.400001 2.1,0 4.85,-1.2 9.15,-5.300001 4,-3.8 20.5,-20.4 21.9,-21.85 0.5,-0.55 0.45,-4.9 -0.55,-3.9 z m -37.85,23.15 c -2.55,0 -2.05,-4.4 1.15,-9.8 3.25,-5.4 7.95,-9.8 10.55,-9.8 2.55,0 2.05,4.4 -1.2,9.8 -3.2,5.4 -7.9,9.8 -10.5,9.8 z"
         style="font-style:normal;font-variant:normal;font-weight:normal;font-stretch:normal;font-size:50px;line-height:135.00000238%;font-family:streetwear;-inkscape-font-specification:streetwear;text-align:center;text-anchor:middle"
         id="path3670"
         inkscape:connector-curvature="0" />
      <path
         d="m 300.99395,70.353909 c -7.3,9.5 -13.8,14 -19.05,16.35 0.3,-1.1 0.6,-2.3 0.8,-3.55 0.75,-3.75 2,-10 2,-10 0,0 9.2,-7.85 0.45,-7.25 -8.75,0.6 -9.25,10.35 -10.65,18.2 -0.45,2.35 -0.85,4.15 -1.35,5.65 -6.4,1.7 -12.3,2.85 -12.9,6.3 -0.8,4.350001 3.6,5.350001 6.7,5.350001 5.1,0 10.2,-1.650001 13.6,-10.400001 6.5,-3.15 16.35,-10.5 20.85,-17.25 0.4,-0.65 0.75,-4.4 -0.45,-3.4 z m -35.15,26.75 c 0.2,-1.05 2.4,-1.85 5.3,-2.75 -0.65,1 -1.3,1.7 -1.9,2.5 -1.25,1.7 -3.75,2.1 -3.4,0.25 z"
         style="font-style:normal;font-variant:normal;font-weight:normal;font-stretch:normal;font-size:50px;line-height:135.00000238%;font-family:streetwear;-inkscape-font-specification:streetwear;text-align:center;text-anchor:middle"
         id="path3672"
         inkscape:connector-curvature="0" />
      <path
         d="m 320.38066,70.353909 c -1.85,1.95 -19.45,16.35 -21.35,17.95 -1.3,1.1 -2.5,2.2 -2.9,1.75 -0.4,-0.4 0.95,-3.15 1.7,-4.5 0.85,-1.6 3.85,-7.2 7.15,-13.4 l 5.95,0 c 0.85,-1.6 1.35,-2.55 1.35,-2.55 l -5.95,0.05 c 4.6,-8.7 6.5,-11.95 6.5,-11.95 l -7.95,0 c 0,0 -1.55,2.7 -6.5,11.95 l -5.75,0 c 0,0 -0.5,0.9 -1.35,2.5 l 5.8,0 c -5.25,9.75 -10.6,19.8 -11.6,21.65 -2.85,5.2 -1.35,7.600001 1.95,7.600001 2.1,0 4.8,-1.2 9.15,-5.300001 4,-3.8 22.95,-20.4 24.35,-21.85 0.5,-0.55 0.4,-4.9 -0.55,-3.9 z"
         style="font-style:normal;font-variant:normal;font-weight:normal;font-stretch:normal;font-size:50px;line-height:135.00000238%;font-family:streetwear;-inkscape-font-specification:streetwear;text-align:center;text-anchor:middle"
         id="path3674"
         inkscape:connector-curvature="0" />
    </g>
    <rect
       style="fill:none"
       id="rect3707"
       width="88.638451"
       height="18.25255"
       x="-0.58205366"
       y="25.22385" />
    <rect
       style="fill:none"
       id="rect3709"
       width="88.721611"
       height="20.703123"
       x="-0.33260208"
       y="25.054844" />
    <rect
       style="fill:none"
       id="rect3711"
       width="85.395584"
       height="18.84407"
       x="1.3304083"
       y="25.89987"
       clip-path="none" />
    <path
       style="color:#000000;font-style:normal;font-variant:normal;font-weight:normal;font-stretch:normal;font-size:medium;line-height:normal;font-family:sans-serif;text-indent:0;text-align:start;text-decoration:none;text-decoration-line:none;text-decoration-style:solid;text-decoration-color:#000000;letter-spacing:normal;word-spacing:normal;text-transform:none;direction:ltr;block-progression:tb;writing-mode:lr-tb;baseline-shift:baseline;text-anchor:start;white-space:normal;clip-rule:nonzero;display:inline;overflow:visible;visibility:visible;opacity:1;isolation:auto;mix-blend-mode:normal;color-interpolation:sRGB;color-interpolation-filters:linearRGB;solid-color:#000000;solid-opacity:1;fill:#000000;fill-opacity:1;fill-rule:evenodd;stroke:none;stroke-width:0.28222221px;stroke-linecap:butt;stroke-linejoin:miter;stroke-miterlimit:4;stroke-dasharray:none;stroke-dashoffset:0;stroke-opacity:1;color-rendering:auto;image-rendering:auto;shape-rendering:auto;text-rendering:auto;enable-background:accumulate"
       d="m 7.7184422,48.026983 0,0.287808 74.7890618,0 0,-0.287808 -74.7890618,0 z"
       id="path3735"
       inkscape:connector-curvature="0" />
    <rect
       style="fill:none"
       id="rect3446"
       width="84.666664"
       height="22.944893"
       x="2.0738676"
       y="28.094522"
       ry="0" />
  </g>
</svg>
