<?xml version="1.0" encoding="UTF-8" standalone="no"?>
<!-- Created with Inkscape (http://www.inkscape.org/) -->

<svg
   xmlns:dc="http://purl.org/dc/elements/1.1/"
   xmlns:cc="http://creativecommons.org/ns#"
   xmlns:rdf="http://www.w3.org/1999/02/22-rdf-syntax-ns#"
   xmlns:svg="http://www.w3.org/2000/svg"
   xmlns="http://www.w3.org/2000/svg"
   xmlns:sodipodi="http://sodipodi.sourceforge.net/DTD/sodipodi-0.dtd"
   xmlns:inkscape="http://www.inkscape.org/namespaces/inkscape"
   width="48"
   height="48"
   viewBox="0 0 48 48"
   id="svg3758"
   version="1.1"
   inkscape:version="0.91 r13725"
   sodipodi:docname="logo.svg">
  <defs
     id="defs3760" />
  <sodipodi:namedview
     id="base"
     pagecolor="#ffffff"
     bordercolor="#666666"
     borderopacity="1.0"
     inkscape:pageopacity="0.0"
     inkscape:pageshadow="2"
     inkscape:zoom="5.6"
     inkscape:cx="31.432402"
     inkscape:cy="48.154299"
     inkscape:document-units="px"
     inkscape:current-layer="layer1"
     showgrid="true"
     inkscape:window-width="1869"
     inkscape:window-height="1176"
     inkscape:window-x="51"
     inkscape:window-y="24"
     inkscape:window-maximized="1"
     units="px">
    <inkscape:grid
       type="xygrid"
       id="grid3914" />
  </sodipodi:namedview>
  <metadata
     id="metadata3763">
    <rdf:RDF>
      <cc:Work
         rdf:about="">
        <dc:format>image/svg+xml</dc:format>
        <dc:type
           rdf:resource="http://purl.org/dc/dcmitype/StillImage" />
        <dc:title></dc:title>
      </cc:Work>
    </rdf:RDF>
  </metadata>
  <g
     inkscape:label="Layer 1"
     inkscape:groupmode="layer"
     id="layer1"
     transform="translate(0,-1004.3623)">
    <flowRoot
       xml:space="preserve"
       id="flowRoot3768"
       style="font-style:normal;font-weight:normal;font-size:40px;line-height:125%;font-family:sans-serif;letter-spacing:0px;word-spacing:0px;fill:#000000;fill-opacity:1;stroke:none;stroke-width:1px;stroke-linecap:butt;stroke-linejoin:miter;stroke-opacity:1"><flowRegion
         id="flowRegion3770"><rect
           id="rect3772"
           width="483.86307"
           height="130.30968"
           x="127.27922"
           y="131.10309" /></flowRegion><flowPara
         id="flowPara3774" /></flowRoot>    <g
       style="font-style:normal;font-weight:normal;font-size:40px;line-height:125%;font-family:sans-serif;letter-spacing:0px;word-spacing:0px;fill:#000000;fill-opacity:1;stroke:none;stroke-width:1px;stroke-linecap:butt;stroke-linejoin:miter;stroke-opacity:1"
       id="text3776"
       transform="matrix(0.78962311,0,0,0.78962311,-226.17157,910.45375)">
      <path
         d="m 341.85349,129.55873 c -0.2,-0.32 -0.52,-0.52 -0.88,-0.52 l -12.28,0 -6.32,0 -10.84,0 c -0.64,0 -1.24,0.36 -1.52,0.96 l -1.52,3.04 c -0.16,0.28 -0.12,0.6 0.04,0.88 0.16,0.28 0.44,0.44 0.76,0.44 l 10.28,0 c -2.6,4.92 -6.36,12 -8.48,15.84 -19.44,2.32 -23.8,18.28 -14.4,18.28 5.92,0 12.28,-2.28 19.08,-14.32 0.12,-0.16 0.24,-0.4 0.4,-0.68 l 7.28,0 c 0.84,0 1.56,-0.4 2,-1.08 l 1.72,-3.36 c 0.2,-0.32 0.2,-0.72 0.04,-1.08 -0.2,-0.32 -0.56,-0.52 -0.92,-0.52 l -7.08,0 c 2.32,-4.32 4.88,-8.88 7.12,-13.08 l 12.24,0 c 0.88,0 1.68,-0.48 2.04,-1.28 l 1.28,-2.52 c 0.16,-0.32 0.16,-0.68 -0.04,-1 z m -44.44,34.48 c -3.6,0 1.44,-8.48 11.76,-10.4 -4.88,8 -9.28,10.4 -11.76,10.4 z"
         style="font-style:normal;font-variant:normal;font-weight:normal;font-stretch:normal;font-family:Streetwear;-inkscape-font-specification:Streetwear"
         id="path3781"
         inkscape:connector-curvature="0" />
    </g>
  </g>
</svg>
